<svg width="26" height="28" viewBox="0 0 26 28" fill="none" xmlns="http://www.w3.org/2000/svg">
<path d="M4.21186 27.3178C3.57891 27.7265 2.81868 27.85 2.10547 27.6817L14.6375 15.1631L18.6991 19.2204L4.21186 27.3178Z" fill="#F7F7F7"/>
<path d="M0.550669 26.6643C0.201224 26.2002 0 25.6302 0 25.0273V2.72784C0 2.12492 0.201224 1.55497 0.550669 1.09082L13.351 13.8775L0.550669 26.6643Z" fill="#F7F7F7"/>
<path d="M24.0013 16.2579L20.3509 18.2981L15.9258 13.8777L20.3512 9.45703L24.0019 11.4975C24.8765 11.9869 25.3986 12.8767 25.3986 13.8777C25.3986 14.8787 24.8765 15.7683 24.0013 16.2579Z" fill="#F7F7F7"/>
<path d="M14.6386 12.5922L2.10742 0.0742986C2.31281 0.0259405 2.52195 0 2.73097 0C3.24777 0 3.76264 0.146782 4.21307 0.437464L18.7004 8.53483L14.6386 12.5922Z" fill="#F7F7F7"/>
</svg>
