<svg width="47" height="50" viewBox="0 0 47 50" fill="none" xmlns="http://www.w3.org/2000/svg">
<g clip-path="url(#clip0_1071_2893)">
<rect width="46.3636" height="50" rx="9.09091" fill="#A1C249"/>
<path d="M20.7959 36.6109C19.3413 36.6109 18.2359 36.2182 17.4795 35.4327C16.7231 34.6182 16.3449 33.4982 16.3449 32.0727C16.3449 30.3564 16.5922 28.64 17.0868 26.9236C17.6104 25.2073 18.2359 23.5491 18.9631 21.9491C19.7195 20.32 20.4613 18.8073 21.1886 17.4109C21.9449 15.9855 22.5559 14.7345 23.0213 13.6582C23.2831 13.0473 23.414 12.5236 23.414 12.0873C23.414 11.4473 23.1522 11.1273 22.6286 11.1273C22.2795 11.1273 21.7704 11.3745 21.1013 11.8691C20.4613 12.3345 19.8359 13.0036 19.2249 13.8764C17.9159 15.7091 16.9122 17.4255 16.214 19.0255C15.5159 20.6255 15.1668 21.9636 15.1668 23.04C15.1668 23.5345 15.254 23.9564 15.4286 24.3055C15.4868 24.3927 15.5159 24.5236 15.5159 24.6982C15.5159 24.9309 15.3849 25.0473 15.1231 25.0473C14.8613 25.0473 14.5413 24.9018 14.1631 24.6109C13.6977 24.2327 13.3486 23.7673 13.1159 23.2145C12.9122 22.6618 12.8104 22.0364 12.8104 21.3382C12.8104 20.3782 12.9849 19.36 13.334 18.2836C13.7122 17.2073 14.2068 16.16 14.8177 15.1418C15.4286 14.0945 16.1268 13.1782 16.9122 12.3927C17.8431 11.4618 18.8613 10.72 19.9668 10.1673C21.1013 9.61455 22.0322 9.33818 22.7595 9.33818C24.534 9.33818 25.9159 9.70182 26.9049 10.4291C27.894 11.1564 28.3886 12.0436 28.3886 13.0909C28.3886 13.44 28.3159 13.8327 28.1704 14.2691C27.734 15.5491 27.1377 17.0182 26.3813 18.6764C25.654 20.3055 24.8977 21.9927 24.1122 23.7382C23.3559 25.4836 22.7013 27.1709 22.1486 28.8C21.6249 30.4291 21.3631 31.8691 21.3631 33.12C21.3631 33.5855 21.4213 33.9636 21.5377 34.2545C21.6831 34.5164 21.9013 34.6473 22.1922 34.6473C22.8031 34.6473 23.4722 34.2545 24.1995 33.4691C24.9268 32.6836 25.6686 31.6509 26.4249 30.3709C27.1813 29.0909 27.9086 27.6945 28.6068 26.1818C29.334 24.6691 29.974 23.1709 30.5268 21.6873C31.0795 20.2036 31.5159 18.88 31.8359 17.7164C32.1849 16.5236 32.3595 15.6218 32.3595 15.0109C32.3595 14.5455 32.3013 14.0655 32.1849 13.5709C32.0977 13.0473 31.9668 12.5964 31.7922 12.2182C31.6177 11.84 31.4286 11.6509 31.2249 11.6509C30.9631 11.6509 30.8322 11.5927 30.8322 11.4764C30.8322 11.2727 31.0068 11.1709 31.3559 11.1709C31.7631 11.1709 32.3449 11.2873 33.1013 11.52C33.8868 11.7236 34.6431 12.0436 35.3704 12.48C36.1268 12.9455 36.6504 13.4691 36.9413 14.0509C37.2322 14.6327 37.3777 15.2582 37.3777 15.9273C37.3777 16.6255 37.2613 17.3382 37.0286 18.0655C36.7959 18.7927 36.5631 19.4909 36.3304 20.16C35.9813 21.1782 35.414 22.4 34.6286 23.8255C33.8722 25.2218 32.9704 26.6618 31.9231 28.1455C30.8759 29.6291 29.7268 31.0109 28.4759 32.2909C27.254 33.5709 25.9886 34.6182 24.6795 35.4327C23.3704 36.2182 22.0759 36.6109 20.7959 36.6109Z" fill="#F7F7F7"/>
</g>
<defs>
<clipPath id="clip0_1071_2893">
<rect width="46.3636" height="50" rx="9.09091" fill="white"/>
</clipPath>
</defs>
</svg>
