<svg width="65" height="49" viewBox="0 0 65 49" fill="none" xmlns="http://www.w3.org/2000/svg">
<g filter="url(#filter0_dd_1071_3375)">
<rect x="9.1875" y="4.70703" width="46.6143" height="30.0304" rx="5.37857" fill="white"/>
<rect x="9.07545" y="4.59498" width="46.8384" height="30.2545" rx="5.49062" stroke="#D6DCE5" stroke-width="0.224107"/>
<path d="M24.2638 15.7887C24.5748 15.3998 24.7858 14.8775 24.7301 14.3438C24.2749 14.3664 23.7194 14.6441 23.3977 15.0334C23.1089 15.3667 22.8533 15.9109 22.92 16.4223C23.431 16.4666 23.9416 16.1668 24.2638 15.7887Z" fill="#000008"/>
<path d="M24.7244 16.5221C23.9822 16.4779 23.3512 16.9433 22.9968 16.9433C22.6422 16.9433 22.0994 16.5444 21.5124 16.5551C20.7484 16.5663 20.0395 16.9983 19.6518 17.6854C18.8543 19.0598 19.4413 21.0986 20.2168 22.2181C20.5934 22.7719 21.0473 23.3816 21.6453 23.3597C22.2103 23.3376 22.4318 22.9939 23.1186 22.9939C23.8049 22.9939 24.0044 23.3597 24.6025 23.3487C25.2228 23.3376 25.6106 22.7946 25.9872 22.2402C26.4192 21.6089 26.596 20.9993 26.6072 20.9659C26.596 20.9548 25.4111 20.5002 25.4001 19.1372C25.3889 17.9959 26.3304 17.453 26.3747 17.4194C25.8431 16.633 25.0124 16.5444 24.7244 16.5221Z" fill="#000008"/>
<path d="M31.1864 14.9776C32.7995 14.9776 33.9227 16.0894 33.9227 17.7083C33.9227 19.3329 32.7764 20.4506 31.146 20.4506H29.36V23.2908H28.0697V14.9776L31.1864 14.9776ZM29.36 19.3675H30.8406C31.9641 19.3675 32.6035 18.7626 32.6035 17.7141C32.6035 16.6656 31.9641 16.0664 30.8464 16.0664H29.36V19.3675Z" fill="#000008"/>
<path d="M34.2598 21.5682C34.2598 20.5081 35.0721 19.8572 36.5125 19.7765L38.1716 19.6786V19.212C38.1716 18.5379 37.7164 18.1346 36.9561 18.1346C36.2358 18.1346 35.7864 18.4802 35.6771 19.0219H34.5018C34.571 17.9272 35.5042 17.1207 37.0021 17.1207C38.4711 17.1207 39.4101 17.8984 39.4101 19.114V23.2907H38.2176V22.2941H38.1889C37.8375 22.9682 37.0712 23.3944 36.2763 23.3944C35.0895 23.3944 34.2598 22.657 34.2598 21.5682ZM38.1716 21.0209V20.5428L36.6794 20.6349C35.9362 20.6868 35.5157 21.0152 35.5157 21.5337C35.5157 22.0636 35.9536 22.4093 36.6218 22.4093C37.4917 22.4093 38.1716 21.8101 38.1716 21.0209Z" fill="#000008"/>
<path d="M40.536 25.5203V24.5121C40.628 24.5351 40.8354 24.5351 40.9392 24.5351C41.5152 24.5351 41.8264 24.2932 42.0164 23.671C42.0164 23.6594 42.126 23.3023 42.126 23.2965L39.9369 17.2301H41.2848L42.8174 22.1616H42.8403L44.3729 17.2301H45.6863L43.4163 23.6076C42.898 25.0767 42.2989 25.5491 41.043 25.5491C40.9392 25.5491 40.628 25.5375 40.536 25.5203Z" fill="#000008"/>
</g>
<defs>
<filter id="filter0_dd_1071_3375" x="-0.00139523" y="0.00027895" width="64.9911" height="48.4071" filterUnits="userSpaceOnUse" color-interpolation-filters="sRGB">
<feFlood flood-opacity="0" result="BackgroundImageFix"/>
<feColorMatrix in="SourceAlpha" type="matrix" values="0 0 0 0 0 0 0 0 0 0 0 0 0 0 0 0 0 0 127 0" result="hardAlpha"/>
<feOffset dy="0.448214"/>
<feGaussianBlur stdDeviation="2.24107"/>
<feColorMatrix type="matrix" values="0 0 0 0 0.717647 0 0 0 0 0.717647 0 0 0 0 0.717647 0 0 0 0.08 0"/>
<feBlend mode="normal" in2="BackgroundImageFix" result="effect1_dropShadow_1071_3375"/>
<feColorMatrix in="SourceAlpha" type="matrix" values="0 0 0 0 0 0 0 0 0 0 0 0 0 0 0 0 0 0 127 0" result="hardAlpha"/>
<feOffset dy="4.48214"/>
<feGaussianBlur stdDeviation="4.48214"/>
<feColorMatrix type="matrix" values="0 0 0 0 0.717647 0 0 0 0 0.717647 0 0 0 0 0.717647 0 0 0 0.08 0"/>
<feBlend mode="normal" in2="effect1_dropShadow_1071_3375" result="effect2_dropShadow_1071_3375"/>
<feBlend mode="normal" in="SourceGraphic" in2="effect2_dropShadow_1071_3375" result="shape"/>
</filter>
</defs>
</svg>
