<svg width="18" height="21" viewBox="0 0 18 21" fill="none" xmlns="http://www.w3.org/2000/svg">
<path fill-rule="evenodd" clip-rule="evenodd" d="M1.85222 3.95033C1.70498 3.12411 2.2554 2.33496 3.08162 2.18772L15.2232 0.0239321C15.6556 -0.0531169 16.1001 0.0606421 16.4423 0.335897C16.7845 0.611152 16.9908 1.02098 17.0082 1.45979L17.4963 13.783C17.5295 14.6216 16.8767 15.3283 16.0381 15.3616C15.1995 15.3948 14.4928 14.7419 14.4596 13.9033L14.132 5.63235L2.70462 19.8382C2.1786 20.4922 1.22206 20.5959 0.568136 20.0698C-0.0857893 19.5438 -0.189475 18.5873 0.336547 17.9333L11.7639 3.72746L3.61483 5.17972C2.78861 5.32697 1.99946 4.77655 1.85222 3.95033Z" fill="#363853"/>
</svg>
