<svg width="24" height="24" viewBox="0 0 24 24" fill="none" xmlns="http://www.w3.org/2000/svg">
<path d="M20.2067 14.97C19.6697 17.657 19.4007 19 18.5137 19.865C18.3491 20.025 18.1724 20.1697 17.9837 20.299C16.9607 21 15.5907 21 12.8507 21H11.1507C8.41075 21 7.04175 21 6.01975 20.3C5.83096 20.1704 5.65364 20.0249 5.48975 19.865C4.60075 19 4.33075 17.657 3.79375 14.97C3.02275 11.114 2.63675 9.186 3.52475 7.82C3.68563 7.57236 3.87344 7.3433 4.08475 7.137C5.25075 6 7.21575 6 11.1487 6H12.8517C16.7837 6 18.7497 6 19.9157 7.138C20.1267 7.34435 20.3142 7.57341 20.4747 7.821C20.9857 8.607 21.0747 9.581 20.9107 11" stroke="black" stroke-width="1.5" stroke-linecap="round"/>
<path d="M15 11C15.5523 11 16 10.5523 16 10C16 9.44772 15.5523 9 15 9C14.4477 9 14 9.44772 14 10C14 10.5523 14.4477 11 15 11Z" fill="black"/>
<path d="M9 11C9.55228 11 10 10.5523 10 10C10 9.44772 9.55228 9 9 9C8.44772 9 8 9.44772 8 10C8 10.5523 8.44772 11 9 11Z" fill="black"/>
<path d="M9 6V5C9 4.20435 9.31607 3.44129 9.87868 2.87868C10.4413 2.31607 11.2044 2 12 2C12.7956 2 13.5587 2.31607 14.1213 2.87868C14.6839 3.44129 15 4.20435 15 5V6" stroke="black" stroke-width="1.5" stroke-linecap="round"/>
</svg>
