<svg width="31" height="31" viewBox="0 0 31 31" fill="none" xmlns="http://www.w3.org/2000/svg">
<path d="M5.47732 15.8233C4.9666 15.3159 4.56196 14.712 4.28698 14.0468C4.012 13.3815 3.87217 12.6681 3.87565 11.9483C3.87565 10.4923 4.45402 9.09604 5.48351 8.06654C6.51301 7.03705 7.90931 6.45868 9.36523 6.45868C11.4061 6.45868 13.1886 7.56952 14.1315 9.22285H15.5782C16.0575 8.38205 16.7511 7.6833 17.5884 7.19774C18.4256 6.71219 19.3766 6.45718 20.3444 6.45868C21.8003 6.45868 23.1966 7.03705 24.2261 8.06654C25.2556 9.09604 25.834 10.4923 25.834 11.9483C25.834 13.4595 25.1882 14.8545 24.2323 15.8233L14.8548 25.1878L5.47732 15.8233ZM25.1365 16.7403C26.3636 15.5003 27.1257 13.8212 27.1257 11.9483C27.1257 10.1498 26.4112 8.42493 25.1395 7.1532C23.8677 5.88147 22.1429 5.16702 20.3444 5.16702C18.084 5.16702 16.0819 6.26493 14.8548 7.96993C14.2285 7.09999 13.4038 6.39193 12.4491 5.90446C11.4944 5.417 10.4372 5.1642 9.36523 5.16702C7.56673 5.16702 5.8419 5.88147 4.57017 7.1532C3.29844 8.42493 2.58398 10.1498 2.58398 11.9483C2.58398 13.8212 3.34607 15.5003 4.57315 16.7403L14.8548 27.022L25.1365 16.7403Z" fill="#1A1A1A"/>
</svg>
