<svg width="65" height="49" viewBox="0 0 65 49" fill="none" xmlns="http://www.w3.org/2000/svg">
<g filter="url(#filter0_dd_1071_3377)">
<rect x="9.1875" y="4.70703" width="46.6143" height="30.0304" rx="5.37857" fill="white"/>
<rect x="9.07545" y="4.59498" width="46.8384" height="30.2545" rx="5.49062" stroke="#D6DCE5" stroke-width="0.224107"/>
<path d="M31.4819 23.3218H30.4335V15.1636H33.2129C33.9174 15.1636 34.518 15.3984 35.0095 15.868C35.5119 16.3376 35.7631 16.911 35.7631 17.5881C35.7631 18.2816 35.5119 18.855 35.0095 19.3191C34.5235 19.7833 33.9228 20.0127 33.2129 20.0127H31.4819V23.3218ZM31.4819 16.1683V19.0133H33.2348C33.6498 19.0133 33.9993 18.8714 34.2723 18.5929C34.5508 18.3144 34.6928 17.9758 34.6928 17.5936C34.6928 17.2168 34.5508 16.8837 34.2723 16.6052C33.9993 16.3158 33.6553 16.1738 33.2348 16.1738H31.4819V16.1683Z" fill="#3C4043"/>
<path d="M38.5042 17.5553C39.2796 17.5553 39.8912 17.7629 40.339 18.1779C40.7868 18.5929 41.0106 19.1608 41.0106 19.8816V23.3218H40.0113V22.5464H39.9677C39.5363 23.1853 38.9574 23.502 38.2366 23.502C37.6196 23.502 37.1063 23.3218 36.6913 22.956C36.2763 22.5901 36.0688 22.1369 36.0688 21.5908C36.0688 21.012 36.2872 20.5533 36.724 20.2147C37.1609 19.8707 37.7452 19.7014 38.4714 19.7014C39.094 19.7014 39.6073 19.8161 40.0059 20.0454V19.8051C40.0059 19.4393 39.8639 19.1335 39.5745 18.8768C39.2851 18.6202 38.9465 18.4946 38.5588 18.4946C37.9745 18.4946 37.5104 18.7403 37.1718 19.2372L36.249 18.6584C36.7568 17.9212 37.5104 17.5553 38.5042 17.5553ZM37.15 21.6072C37.15 21.8802 37.2646 22.1095 37.4994 22.2898C37.7288 22.47 38.0018 22.5628 38.3131 22.5628C38.7554 22.5628 39.1486 22.399 39.4926 22.0713C39.8366 21.7437 40.0113 21.3614 40.0113 20.9191C39.6837 20.6625 39.2305 20.5314 38.6462 20.5314C38.2202 20.5314 37.8653 20.6352 37.5814 20.8372C37.2919 21.0502 37.15 21.3068 37.15 21.6072Z" fill="#3C4043"/>
<path d="M46.7116 17.7356L43.2168 25.7737H42.1356L43.4352 22.9615L41.1308 17.7356H42.2721L43.9321 21.7437H43.954L45.5703 17.7356H46.7116Z" fill="#3C4043"/>
<path d="M27.3115 19.3519C27.3115 19.0101 27.281 18.683 27.2242 18.3684H22.8294V20.1705L25.3605 20.171C25.2578 20.7706 24.9274 21.2817 24.4212 21.6225V22.7916H25.9278C26.8075 21.9774 27.3115 20.7739 27.3115 19.3519Z" fill="#4285F4"/>
<path d="M24.4218 21.6225C24.0024 21.9054 23.4623 22.0708 22.8305 22.0708C21.6101 22.0708 20.5747 21.2485 20.204 20.1399H18.6499V21.3457C19.4198 22.8736 21.0023 23.922 22.8305 23.922C24.0941 23.922 25.1557 23.5065 25.9284 22.7911L24.4218 21.6225Z" fill="#34A853"/>
<path d="M20.0576 19.2454C20.0576 18.9342 20.1094 18.6333 20.2039 18.3504V17.1447H18.6498C18.3315 17.7765 18.1523 18.4897 18.1523 19.2454C18.1523 20.0012 18.332 20.7143 18.6498 21.3461L20.2039 20.1404C20.1094 19.8576 20.0576 19.5567 20.0576 19.2454Z" fill="#FABB05"/>
<path d="M22.8305 16.4195C23.5202 16.4195 24.1378 16.6571 24.6254 17.1212L25.9606 15.7872C25.1497 15.032 24.0925 14.5684 22.8305 14.5684C21.0028 14.5684 19.4198 15.6168 18.6498 17.1447L20.2039 18.3504C20.5747 17.2419 21.6101 16.4195 22.8305 16.4195Z" fill="#E94235"/>
</g>
<defs>
<filter id="filter0_dd_1071_3377" x="-0.00139523" y="0.00027895" width="64.9911" height="48.4071" filterUnits="userSpaceOnUse" color-interpolation-filters="sRGB">
<feFlood flood-opacity="0" result="BackgroundImageFix"/>
<feColorMatrix in="SourceAlpha" type="matrix" values="0 0 0 0 0 0 0 0 0 0 0 0 0 0 0 0 0 0 127 0" result="hardAlpha"/>
<feOffset dy="0.448214"/>
<feGaussianBlur stdDeviation="2.24107"/>
<feColorMatrix type="matrix" values="0 0 0 0 0.717647 0 0 0 0 0.717647 0 0 0 0 0.717647 0 0 0 0.08 0"/>
<feBlend mode="normal" in2="BackgroundImageFix" result="effect1_dropShadow_1071_3377"/>
<feColorMatrix in="SourceAlpha" type="matrix" values="0 0 0 0 0 0 0 0 0 0 0 0 0 0 0 0 0 0 127 0" result="hardAlpha"/>
<feOffset dy="4.48214"/>
<feGaussianBlur stdDeviation="4.48214"/>
<feColorMatrix type="matrix" values="0 0 0 0 0.717647 0 0 0 0 0.717647 0 0 0 0 0.717647 0 0 0 0.08 0"/>
<feBlend mode="normal" in2="effect1_dropShadow_1071_3377" result="effect2_dropShadow_1071_3377"/>
<feBlend mode="normal" in="SourceGraphic" in2="effect2_dropShadow_1071_3377" result="shape"/>
</filter>
</defs>
</svg>
