<svg width="80" height="80" viewBox="0 0 80 80" fill="none" xmlns="http://www.w3.org/2000/svg">
<path opacity="0.3" d="M80 40C80 62.0914 62.0914 80 40 80C17.9086 80 0 62.0914 0 40C0 17.9086 17.9086 0 40 0C62.0914 0 80 17.9086 80 40ZM10.9071 40C10.9071 56.0675 23.9325 69.0929 40 69.0929C56.0675 69.0929 69.0929 56.0675 69.0929 40C69.0929 23.9325 56.0675 10.9071 40 10.9071C23.9325 10.9071 10.9071 23.9325 10.9071 40Z" fill="#2F2E30"/>
<circle cx="40" cy="40" r="29" fill="black"/>
<path d="M39.9824 22.5879C41.0039 22.5879 42.0034 22.7371 42.7568 23.0186L51.0742 26.1357H51.0752C53.2947 26.9625 55.0498 29.5081 55.0498 31.8672V44.25C55.0498 45.3372 54.7056 46.5899 54.123 47.749C53.5771 48.8353 52.8397 49.8029 52.0303 50.4561L51.8672 50.583L44.7002 55.9326L44.6943 55.9375C43.4116 56.9266 41.723 57.4336 39.999 57.4336C38.2763 57.4335 36.584 56.9268 35.2637 55.9482H35.2627L28.0986 50.5996C27.2259 49.9489 26.4246 48.9213 25.8418 47.7598C25.259 46.5981 24.916 45.3452 24.916 44.2666V31.8672C24.916 29.508 26.671 26.9624 28.8906 26.1357H28.8916L37.208 23.0186C37.9614 22.737 38.9608 22.5879 39.9824 22.5879ZM40 24.0859C39.2014 24.0881 38.3745 24.1954 37.7412 24.4316L37.7402 24.4326L29.4238 27.5488H29.4229C28.5953 27.8604 27.8541 28.5229 27.3232 29.291C26.7922 30.0594 26.4326 30.9903 26.4326 31.8838V44.2666C26.4326 45.1611 26.7432 46.1898 27.2002 47.1016C27.6571 48.0131 28.2924 48.8731 29 49.4014L36.167 54.751C37.2288 55.5449 38.6274 55.9257 40.001 55.9258C41.3749 55.9258 42.7772 55.5447 43.8467 54.752L43.8486 54.751L51.0146 49.4014L51.0156 49.4004C51.7304 48.8643 52.366 48.0054 52.8213 47.0947C53.2766 46.1841 53.583 45.16 53.583 44.2666V31.8672C53.583 30.9811 53.2226 30.0543 52.6924 29.2871C52.1619 28.5196 51.4214 27.8543 50.5967 27.5342L50.5918 27.5322L42.2744 24.415L42.2656 24.4121C41.6275 24.1869 40.7994 24.0838 40 24.0859Z" fill="#FAFAFA" stroke="#FAFAFA"/>
<path d="M44.4043 34.7705C44.6924 34.4827 45.1759 34.4825 45.4639 34.7705C45.7518 35.0585 45.7516 35.542 45.4639 35.8301L38.2969 42.9971C38.1456 43.1483 37.9578 43.2168 37.7666 43.2168C37.5756 43.2167 37.3885 43.1482 37.2373 42.9971L34.5537 40.3135C34.2658 40.0254 34.2657 39.5419 34.5537 39.2539C34.8417 38.9659 35.3252 38.966 35.6133 39.2539L37.7666 41.4072L38.1211 41.0537L44.4043 34.7705Z" fill="#FAFAFA" stroke="#FAFAFA"/>
</svg>
