<svg width="80" height="80" viewBox="0 0 80 80" fill="none" xmlns="http://www.w3.org/2000/svg">
<path opacity="0.3" d="M80 40C80 62.0914 62.0914 80 40 80C17.9086 80 0 62.0914 0 40C0 17.9086 17.9086 0 40 0C62.0914 0 80 17.9086 80 40ZM10.9071 40C10.9071 56.0675 23.9325 69.0929 40 69.0929C56.0675 69.0929 69.0929 56.0675 69.0929 40C69.0929 23.9325 56.0675 10.9071 40 10.9071C23.9325 10.9071 10.9071 23.9325 10.9071 40Z" fill="#2F2E30"/>
<circle cx="40" cy="40" r="29" fill="black"/>
<g clip-path="url(#clip0_2010_2062)">
<path d="M33.3327 44.9993C33.3327 43.1584 31.8403 41.666 29.9993 41.666C28.1584 41.666 26.666 43.1584 26.666 44.9993V48.3327C26.666 50.1736 28.1584 51.666 29.9993 51.666C31.8403 51.666 33.3327 50.1736 33.3327 48.3327V44.9993Z" stroke="white" stroke-width="2" stroke-linecap="round" stroke-linejoin="round"/>
<path d="M53.3327 44.9993C53.3327 43.1584 51.8403 41.666 49.9993 41.666C48.1584 41.666 46.666 43.1584 46.666 44.9993V48.3327C46.666 50.1736 48.1584 51.666 49.9993 51.666C51.8403 51.666 53.3327 50.1736 53.3327 48.3327V44.9993Z" stroke="white" stroke-width="2" stroke-linecap="round" stroke-linejoin="round"/>
<path d="M26.666 44.9994V39.9994C26.666 36.4631 28.0708 33.0717 30.5713 30.5713C33.0717 28.0708 36.4631 26.666 39.9993 26.666C43.5356 26.666 46.927 28.0708 49.4274 30.5713C51.9279 33.0717 53.3327 36.4631 53.3327 39.9994V44.9994" stroke="white" stroke-width="2" stroke-linecap="round" stroke-linejoin="round"/>
<path d="M50 51.666C50 52.9921 48.9464 54.2639 47.0711 55.2016C45.1957 56.1392 42.6522 56.666 40 56.666" stroke="white" stroke-width="2" stroke-linecap="round" stroke-linejoin="round"/>
</g>
<defs>
<clipPath id="clip0_2010_2062">
<rect width="40" height="40" fill="white" transform="translate(20 20)"/>
</clipPath>
</defs>
</svg>
