<svg width="18" height="18" viewBox="0 0 18 18" fill="none" xmlns="http://www.w3.org/2000/svg">
<path d="M2.94095 8.82376H9.92624M4.41153 11.0296L2.20565 8.82376L4.41153 6.61788M8.08801 5.14729V4.41199C8.08801 4.02197 8.24294 3.64792 8.51873 3.37213C8.79452 3.09634 9.16857 2.94141 9.55859 2.94141H13.2351C13.6251 2.94141 13.9991 3.09634 14.2749 3.37213C14.5507 3.64792 14.7057 4.02197 14.7057 4.41199V13.2355C14.7057 13.6255 14.5507 13.9996 14.2749 14.2754C13.9991 14.5512 13.6251 14.7061 13.2351 14.7061H9.55859C9.16857 14.7061 8.79452 14.5512 8.51873 14.2754C8.24294 13.9996 8.08801 13.6255 8.08801 13.2355V12.5002" stroke="#1A1A1A" stroke-width="1.10294" stroke-linecap="round" stroke-linejoin="round"/>
</svg>
