<svg width="65" height="49" viewBox="0 0 65 49" fill="none" xmlns="http://www.w3.org/2000/svg">
<g filter="url(#filter0_dd_1071_3371)">
<rect x="9.1875" y="4.70703" width="46.6143" height="30.0304" rx="5.37857" fill="white"/>
<rect x="9.07545" y="4.59498" width="46.8384" height="30.2545" rx="5.49062" stroke="#D6DCE5" stroke-width="0.224107"/>
<path d="M35.8433 13.5559H28.98V25.8894H35.8433V13.5559Z" fill="#FF5F00"/>
<path d="M29.4158 19.7227C29.4147 18.5349 29.6839 17.3624 30.2029 16.294C30.722 15.2256 31.4773 14.2892 32.4117 13.5559C31.2546 12.6464 29.8649 12.0808 28.4015 11.9237C26.9381 11.7666 25.4601 12.0245 24.1363 12.6677C22.8126 13.3109 21.6965 14.3137 20.9156 15.5612C20.1348 16.8088 19.7207 18.2509 19.7207 19.7227C19.7207 21.1944 20.1348 22.6365 20.9156 23.8841C21.6965 25.1317 22.8126 26.1344 24.1363 26.7776C25.4601 27.4209 26.9381 27.6787 28.4015 27.5216C29.8649 27.3645 31.2546 26.7989 32.4117 25.8894C31.4773 25.1561 30.722 24.2197 30.2029 23.1513C29.6839 22.0829 29.4147 20.9105 29.4158 19.7227Z" fill="#EB001B"/>
<path d="M45.1022 19.7227C45.1023 21.1944 44.6883 22.6365 43.9075 23.8841C43.1267 25.1316 42.0106 26.1343 40.6869 26.7776C39.3631 27.4208 37.8851 27.6787 36.4217 27.5216C34.9584 27.3645 33.5687 26.7989 32.4117 25.8894C33.3452 25.1553 34.0999 24.2189 34.6189 23.1506C35.1379 22.0824 35.4075 20.9103 35.4075 19.7227C35.4075 18.535 35.1379 17.3629 34.6189 16.2947C34.0999 15.2265 33.3452 14.29 32.4117 13.5559C33.5687 12.6464 34.9584 12.0808 36.4217 11.9237C37.8851 11.7666 39.3631 12.0245 40.6869 12.6677C42.0106 13.311 43.1267 14.3137 43.9075 15.5612C44.6883 16.8088 45.1023 18.2509 45.1022 19.7227Z" fill="#F79E1B"/>
<path d="M44.3539 24.5831V24.3306H44.4557V24.2792H44.1964V24.3306H44.2983V24.5831H44.3539ZM44.8573 24.5831V24.2787H44.7778L44.6864 24.4881L44.595 24.2787H44.5154V24.5831H44.5716V24.3535L44.6573 24.5514H44.7155L44.8012 24.353V24.5831H44.8573Z" fill="#F79E1B"/>
</g>
<defs>
<filter id="filter0_dd_1071_3371" x="-0.00139523" y="0.00027895" width="64.9911" height="48.4071" filterUnits="userSpaceOnUse" color-interpolation-filters="sRGB">
<feFlood flood-opacity="0" result="BackgroundImageFix"/>
<feColorMatrix in="SourceAlpha" type="matrix" values="0 0 0 0 0 0 0 0 0 0 0 0 0 0 0 0 0 0 127 0" result="hardAlpha"/>
<feOffset dy="0.448214"/>
<feGaussianBlur stdDeviation="2.24107"/>
<feColorMatrix type="matrix" values="0 0 0 0 0.717647 0 0 0 0 0.717647 0 0 0 0 0.717647 0 0 0 0.08 0"/>
<feBlend mode="normal" in2="BackgroundImageFix" result="effect1_dropShadow_1071_3371"/>
<feColorMatrix in="SourceAlpha" type="matrix" values="0 0 0 0 0 0 0 0 0 0 0 0 0 0 0 0 0 0 127 0" result="hardAlpha"/>
<feOffset dy="4.48214"/>
<feGaussianBlur stdDeviation="4.48214"/>
<feColorMatrix type="matrix" values="0 0 0 0 0.717647 0 0 0 0 0.717647 0 0 0 0 0.717647 0 0 0 0.08 0"/>
<feBlend mode="normal" in2="effect1_dropShadow_1071_3371" result="effect2_dropShadow_1071_3371"/>
<feBlend mode="normal" in="SourceGraphic" in2="effect2_dropShadow_1071_3371" result="shape"/>
</filter>
</defs>
</svg>
