<svg width="65" height="49" viewBox="0 0 65 49" fill="none" xmlns="http://www.w3.org/2000/svg">
<g filter="url(#filter0_dd_1071_3373)">
<rect x="9.1875" y="4.70703" width="46.6143" height="30.0304" rx="5.37857" fill="white"/>
<rect x="9.07545" y="4.59498" width="46.8384" height="30.2545" rx="5.49062" stroke="#D6DCE5" stroke-width="0.224107"/>
<path fill-rule="evenodd" clip-rule="evenodd" d="M19.3846 15.3525H16.6971C16.5132 15.3525 16.3567 15.4862 16.3281 15.6677L15.2411 22.5584C15.2195 22.6944 15.3248 22.817 15.4627 22.817H16.7458C16.9297 22.817 17.0861 22.6833 17.1148 22.5015L17.4079 20.643C17.4362 20.4609 17.593 20.3275 17.7765 20.3275H18.6273C20.3977 20.3275 21.4193 19.4709 21.6863 17.7735C21.8065 17.0309 21.6914 16.4474 21.3435 16.0386C20.9616 15.59 20.284 15.3525 19.3846 15.3525ZM19.6946 17.8693C19.5477 18.8335 18.8108 18.8335 18.0984 18.8335H17.6928L17.9773 17.0327C17.9942 16.9239 18.0886 16.8437 18.1986 16.8437H18.3845C18.8698 16.8437 19.3276 16.8437 19.5642 17.1203C19.7052 17.2854 19.7484 17.5305 19.6946 17.8693ZM27.4181 17.8384H26.1312C26.0215 17.8384 25.9268 17.9186 25.9098 18.0275L25.8529 18.3873L25.7629 18.257C25.4843 17.8526 24.8631 17.7175 24.243 17.7175C22.8207 17.7175 21.6061 18.7945 21.3695 20.3053C21.2466 21.0588 21.4213 21.7794 21.8489 22.282C22.2411 22.744 22.8023 22.9366 23.4699 22.9366C24.6158 22.9366 25.2513 22.1998 25.2513 22.1998L25.1939 22.5575C25.1722 22.6942 25.2775 22.8168 25.4146 22.8168H26.574C26.7584 22.8168 26.9139 22.6831 26.943 22.5013L27.6385 18.0969C27.6605 17.9615 27.5556 17.8384 27.4181 17.8384ZM25.6241 20.3429C25.4999 21.0781 24.9164 21.5716 24.1722 21.5716C23.7985 21.5716 23.4997 21.4518 23.3081 21.2246C23.1178 20.9992 23.0455 20.6781 23.106 20.3206C23.222 19.5916 23.8154 19.0821 24.5483 19.0821C24.9136 19.0821 25.2108 19.2034 25.4065 19.4325C25.6025 19.664 25.6803 19.9869 25.6241 20.3429ZM32.979 17.8382H34.2724C34.4535 17.8382 34.5592 18.0413 34.4563 18.1899L30.1549 24.398C30.0852 24.4985 29.9705 24.5584 29.8479 24.5584H28.5562C28.3743 24.5584 28.2681 24.3536 28.3734 24.2047L29.7128 22.3144L28.2883 18.1344C28.239 17.9891 28.3463 17.8382 28.5009 17.8382H29.7717C29.9368 17.8382 30.0825 17.9466 30.1301 18.1046L30.8861 20.6291L32.6699 18.002C32.7397 17.8995 32.8558 17.8382 32.979 17.8382Z" fill="#253B80"/>
<path fill-rule="evenodd" clip-rule="evenodd" d="M47.0016 22.5578L48.1046 15.541C48.1215 15.4321 48.2158 15.3519 48.3255 15.3516H49.5672C49.7043 15.3516 49.8096 15.4745 49.788 15.6105L48.7003 22.5009C48.6719 22.6827 48.5155 22.8163 48.3313 22.8163H47.2224C47.0853 22.8163 46.98 22.6938 47.0016 22.5578ZM38.5547 15.3519H35.8667C35.6832 15.3519 35.5268 15.4856 35.4981 15.667L34.4111 22.5578C34.3895 22.6938 34.4948 22.8163 34.6321 22.8163H36.0113C36.1395 22.8163 36.2491 22.7229 36.2691 22.5956L36.5776 20.6424C36.6059 20.4603 36.7627 20.3269 36.9462 20.3269H37.7965C39.5672 20.3269 40.5887 19.4703 40.8559 17.7728C40.9764 17.0302 40.8606 16.4467 40.5129 16.038C40.1312 15.5894 39.4541 15.3519 38.5547 15.3519ZM38.8647 17.8687C38.7182 18.8329 37.9813 18.8329 37.2684 18.8329H36.8632L37.1482 17.0321C37.1651 16.9233 37.2586 16.8431 37.369 16.8431H37.5548C38.0398 16.8431 38.4981 16.8431 38.7345 17.1197C38.8756 17.2848 38.9186 17.5299 38.8647 17.8687ZM46.5875 17.8378H45.3015C45.1909 17.8378 45.097 17.9179 45.0805 18.0269L45.0236 18.3867L44.9332 18.2563C44.6546 17.8519 44.0337 17.7168 43.4136 17.7168C41.9913 17.7168 40.7771 18.7938 40.5405 20.3047C40.4179 21.0582 40.592 21.7788 41.0195 22.2814C41.4125 22.7434 41.973 22.936 42.6406 22.936C43.7864 22.936 44.4218 22.1992 44.4218 22.1992L44.3645 22.5569C44.3429 22.6936 44.4482 22.8162 44.5862 22.8162H45.745C45.9285 22.8162 46.0849 22.6825 46.1136 22.5007L46.8096 18.0963C46.8308 17.9609 46.7256 17.8378 46.5875 17.8378ZM44.7937 20.3423C44.6702 21.0775 44.0859 21.571 43.3416 21.571C42.9686 21.571 42.6693 21.4511 42.4774 21.224C42.2872 20.9986 42.2158 20.6774 42.2756 20.32C42.3922 19.591 42.9848 19.0815 43.7177 19.0815C44.0832 19.0815 44.3802 19.2028 44.576 19.4319C44.7728 19.6634 44.8506 19.9863 44.7937 20.3423Z" fill="#179BD7"/>
</g>
<defs>
<filter id="filter0_dd_1071_3373" x="-0.00139523" y="0.00027895" width="64.9911" height="48.4071" filterUnits="userSpaceOnUse" color-interpolation-filters="sRGB">
<feFlood flood-opacity="0" result="BackgroundImageFix"/>
<feColorMatrix in="SourceAlpha" type="matrix" values="0 0 0 0 0 0 0 0 0 0 0 0 0 0 0 0 0 0 127 0" result="hardAlpha"/>
<feOffset dy="0.448214"/>
<feGaussianBlur stdDeviation="2.24107"/>
<feColorMatrix type="matrix" values="0 0 0 0 0.717647 0 0 0 0 0.717647 0 0 0 0 0.717647 0 0 0 0.08 0"/>
<feBlend mode="normal" in2="BackgroundImageFix" result="effect1_dropShadow_1071_3373"/>
<feColorMatrix in="SourceAlpha" type="matrix" values="0 0 0 0 0 0 0 0 0 0 0 0 0 0 0 0 0 0 127 0" result="hardAlpha"/>
<feOffset dy="4.48214"/>
<feGaussianBlur stdDeviation="4.48214"/>
<feColorMatrix type="matrix" values="0 0 0 0 0.717647 0 0 0 0 0.717647 0 0 0 0 0.717647 0 0 0 0.08 0"/>
<feBlend mode="normal" in2="effect1_dropShadow_1071_3373" result="effect2_dropShadow_1071_3373"/>
<feBlend mode="normal" in="SourceGraphic" in2="effect2_dropShadow_1071_3373" result="shape"/>
</filter>
</defs>
</svg>
