<svg width="18" height="18" viewBox="0 0 18 18" fill="none" xmlns="http://www.w3.org/2000/svg">
<path d="M8.36719 3.34375C8.5062 2.89514 9.14134 2.89506 9.28027 3.34375L10.1611 6.19238C10.366 6.85443 10.9778 7.30562 11.6709 7.30566H14.5801C15.0381 7.30598 15.2334 7.88858 14.8682 8.16504L12.4199 10.0176C11.8893 10.419 11.6668 11.1094 11.8633 11.7451L12.7842 14.7246C12.9217 15.1694 12.4068 15.5288 12.0371 15.2461L9.78516 13.5205C9.21793 13.086 8.42956 13.086 7.8623 13.5205L5.59863 15.2549C5.22947 15.5377 4.71444 15.18 4.85059 14.7354L5.75879 11.7686C5.95205 11.1374 5.73291 10.4523 5.20898 10.0508L2.74609 8.16309C2.38353 7.88534 2.57954 7.30596 3.03613 7.30566H5.97559C6.66872 7.30566 7.28148 6.85453 7.48633 6.19238L8.36719 3.34375Z" stroke="#1A1A1A" stroke-width="1.10294"/>
</svg>
