<svg width="15" height="14" viewBox="0 0 15 14" fill="none" xmlns="http://www.w3.org/2000/svg">
<path d="M6.267 7.8454L4.92 6.5029C4.85 6.4329 4.76475 6.3954 4.66425 6.3904C4.56325 6.3854 4.4715 6.4244 4.389 6.5074C4.309 6.5874 4.269 6.6759 4.269 6.7729C4.269 6.8699 4.309 6.9584 4.389 7.0384L5.8425 8.4919C5.964 8.6129 6.1055 8.6734 6.267 8.6734C6.4285 8.6734 6.57 8.6129 6.6915 8.4919L9.72 5.4634C9.793 5.3904 9.83125 5.3044 9.83475 5.2054C9.83825 5.1059 9.8 5.0149 9.72 4.9324C9.6375 4.8499 9.54825 4.8079 9.45225 4.8064C9.35625 4.8049 9.26725 4.8454 9.18525 4.9279L6.267 7.8454ZM4.557 13.2349L3.57 11.5849L1.70925 11.1919C1.56025 11.1644 1.4415 11.0844 1.353 10.9519C1.2645 10.8199 1.228 10.6794 1.2435 10.5304L1.42125 8.6134L0.159 7.1734C0.0529999 7.0649 0 6.9314 0 6.7729C0 6.6144 0.0529999 6.4809 0.159 6.3724L1.42125 4.9324L1.2435 3.01615C1.2285 2.86665 1.265 2.7259 1.353 2.5939C1.4415 2.4619 1.56025 2.3819 1.70925 2.3539L3.56925 1.96165L4.55625 0.311649C4.63725 0.177649 4.746 0.0851492 4.8825 0.0341492C5.019 -0.0173508 5.16025 -0.0106009 5.30625 0.0543991L7.0545 0.793149L8.802 0.0543991C8.9485 -0.0106009 9.09 -0.0173508 9.2265 0.0341492C9.363 0.0851492 9.47175 0.177649 9.55275 0.311649L10.539 1.96165L12.3998 2.3539C12.5488 2.3819 12.6675 2.4619 12.756 2.5939C12.8445 2.7259 12.881 2.86665 12.8655 3.01615L12.6885 4.9324L13.95 6.3724C14.056 6.4809 14.109 6.6144 14.109 6.7729C14.109 6.9314 14.056 7.06515 13.95 7.17415L12.6885 8.6134L12.8655 10.5296C12.8805 10.6791 12.844 10.8199 12.756 10.9519C12.6675 11.0844 12.5488 11.1644 12.3998 11.1919L10.5397 11.5849L9.55275 13.2349C9.47175 13.3684 9.363 13.4609 9.2265 13.5124C9.09 13.5639 8.94875 13.5569 8.80275 13.4914L7.0545 12.7526L5.307 13.4914C5.1605 13.5564 5.019 13.5632 4.8825 13.5117C4.746 13.4607 4.63725 13.3681 4.55625 13.2341" fill="black"/>
</svg>
