<svg width="65" height="49" viewBox="0 0 65 49" fill="none" xmlns="http://www.w3.org/2000/svg">
<g filter="url(#filter0_dd_1071_3369)">
<rect x="9.1875" y="4.70703" width="46.6143" height="30.0304" rx="5.37857" fill="white"/>
<rect x="9.07545" y="4.59498" width="46.8384" height="30.2545" rx="5.49062" stroke="#D6DCE5" stroke-width="0.224107"/>
<path d="M32.2088 14.8285L30.0345 24.9921H27.4054L29.58 14.8285H32.2088ZM43.2704 21.3911L44.6546 17.5744L45.4511 21.3911H43.2704ZM46.2039 24.9921H48.6358L46.5136 14.8285H44.2689C43.7645 14.8285 43.339 15.1219 43.1495 15.5742L39.205 24.9921H41.966L42.5142 23.4744H45.8873L46.2039 24.9921ZM39.3421 21.6736C39.3533 18.9911 35.6324 18.8434 35.6582 17.6452C35.6659 17.2801 36.0136 16.8927 36.7731 16.7933C37.1504 16.7441 38.1879 16.7065 39.3659 17.2485L39.8272 15.0933C39.1944 14.8636 38.3802 14.6426 37.3676 14.6426C34.769 14.6426 32.94 16.0242 32.9245 18.0025C32.9081 19.4656 34.2302 20.282 35.2265 20.7684C36.2507 21.2667 36.5949 21.5858 36.5904 22.0313C36.5836 22.7136 35.7733 23.014 35.0174 23.0259C33.6953 23.0468 32.928 22.6692 32.3165 22.3842L31.8401 24.6112C32.4542 24.8933 33.5881 25.1384 34.7645 25.151C37.5262 25.151 39.3331 23.7864 39.3421 21.6736ZM28.4518 14.8285L24.1921 24.9921H21.4125L19.3164 16.8808C19.189 16.3813 19.0784 16.1986 18.6914 15.9879C18.0599 15.6453 17.0161 15.3233 16.0977 15.1238L16.1604 14.8285H20.634C21.204 14.8285 21.7171 15.2081 21.8464 15.8646L22.9537 21.7463L25.6896 14.8285H28.4518Z" fill="#1434CB"/>
</g>
<defs>
<filter id="filter0_dd_1071_3369" x="-0.00139523" y="0.00027895" width="64.9911" height="48.4071" filterUnits="userSpaceOnUse" color-interpolation-filters="sRGB">
<feFlood flood-opacity="0" result="BackgroundImageFix"/>
<feColorMatrix in="SourceAlpha" type="matrix" values="0 0 0 0 0 0 0 0 0 0 0 0 0 0 0 0 0 0 127 0" result="hardAlpha"/>
<feOffset dy="0.448214"/>
<feGaussianBlur stdDeviation="2.24107"/>
<feColorMatrix type="matrix" values="0 0 0 0 0.717647 0 0 0 0 0.717647 0 0 0 0 0.717647 0 0 0 0.08 0"/>
<feBlend mode="normal" in2="BackgroundImageFix" result="effect1_dropShadow_1071_3369"/>
<feColorMatrix in="SourceAlpha" type="matrix" values="0 0 0 0 0 0 0 0 0 0 0 0 0 0 0 0 0 0 127 0" result="hardAlpha"/>
<feOffset dy="4.48214"/>
<feGaussianBlur stdDeviation="4.48214"/>
<feColorMatrix type="matrix" values="0 0 0 0 0.717647 0 0 0 0 0.717647 0 0 0 0 0.717647 0 0 0 0.08 0"/>
<feBlend mode="normal" in2="effect1_dropShadow_1071_3369" result="effect2_dropShadow_1071_3369"/>
<feBlend mode="normal" in="SourceGraphic" in2="effect2_dropShadow_1071_3369" result="shape"/>
</filter>
</defs>
</svg>
